<?xml version="1.0" encoding="UTF-8" standalone="no"?>
<svg
   version="1.1"
   width="240"
   height="240"
   id="svg90"
   sodipodi:docname="app.svg"
   inkscape:version="1.1.2 (0a00cf5339, 2022-02-04)"
   xmlns:inkscape="http://www.inkscape.org/namespaces/inkscape"
   xmlns:sodipodi="http://sodipodi.sourceforge.net/DTD/sodipodi-0.dtd"
   xmlns="http://www.w3.org/2000/svg"
   xmlns:svg="http://www.w3.org/2000/svg">
  <defs
     id="defs94" />
  <sodipodi:namedview
     id="namedview92"
     pagecolor="#ffffff"
     bordercolor="#666666"
     borderopacity="1.0"
     inkscape:pageshadow="2"
     inkscape:pageopacity="0.0"
     inkscape:pagecheckerboard="0"
     showgrid="false"
     inkscape:zoom="1.2860505"
     inkscape:cx="-76.591085"
     inkscape:cy="-34.602064"
     inkscape:window-width="1551"
     inkscape:window-height="1082"
     inkscape:window-x="1929"
     inkscape:window-y="151"
     inkscape:window-maximized="0"
     inkscape:current-layer="svg90" />
  <path
     d="M0 0 C79.2 0 158.4 0 240 0 C240 79.2 240 158.4 240 240 C160.8 240 81.6 240 0 240 C0 160.8 0 81.6 0 0 Z "
     fill="#013A5B"
     transform="translate(0,0)"
     id="path80"
     style="fill:#013a5b;fill-opacity:0.0000457" />
  <path
     d="M0 0 C1.03125 0.5775 2.0625 1.155 3.125 1.75 C11.8818921 8.60321991 16.48063793 15.44191378 20 26 C20.31926524 33.39005127 20.16896674 40.69395786 19 48 C19.75023437 47.95359375 20.50046875 47.9071875 21.2734375 47.859375 C30.73304226 47.52578692 37.78525735 49.14472322 45.25 55.125 C50.99453262 60.50831454 55.72009111 67.70041589 56.23828125 75.66015625 C56.45315088 84.18688307 56.357313 91.40336879 52 99 C51.649375 99.64195312 51.29875 100.28390625 50.9375 100.9453125 C46.628745 107.85727365 39.66580736 111.76953086 32 114 C29.1104517 114.25726891 29.1104517 114.25726891 26.04859924 114.26742554 C24.29705032 114.28022049 24.29705032 114.28022049 22.51011658 114.29327393 C21.24293289 114.29236755 19.97574921 114.29146118 18.67016602 114.29052734 C17.31119418 114.29651701 15.95222573 114.30332357 14.59326172 114.31088257 C10.91349398 114.3285026 7.23381934 114.33323618 3.55401349 114.33451414 C1.2526683 114.33593827 -1.04865341 114.34021275 -3.34999275 114.34550858 C-11.38511781 114.36399377 -19.42017664 114.37218085 -27.45532227 114.37060547 C-34.93534288 114.36940362 -42.41507516 114.39051813 -49.89502281 114.4220928 C-56.32663622 114.44827103 -62.75815552 114.45897216 -69.18982178 114.45769465 C-73.02700042 114.45718558 -76.86392252 114.46283827 -80.7010479 114.48405075 C-84.31026144 114.50346018 -87.91897434 114.50353967 -91.52820587 114.48901749 C-93.47702467 114.48594049 -95.42584367 114.50258584 -97.37458801 114.51989746 C-105.43302128 114.46214359 -110.05854221 113.60570398 -116.109375 108.0703125 C-116.65078125 107.42835938 -117.1921875 106.78640625 -117.75 106.125 C-118.57757813 105.16980469 -118.57757813 105.16980469 -119.421875 104.1953125 C-124.78130146 96.73987272 -124.84627236 89.94356015 -124 81 C-122.06790051 73.61661981 -116.34085132 68.13245829 -110.0625 64.125 C-106.30928261 62.74626708 -102.97988079 62.34309317 -99 62 C-99.33 60.865625 -99.66 59.73125 -100 58.5625 C-101.75862182 51.33685819 -101.93645255 45.37402827 -98.1953125 38.78125 C-94.96168537 33.96251153 -90.57355374 29.83819145 -85 28 C-77.32652803 27.0297909 -70.37497933 27.30512606 -64 32 C-63.51789063 32.51949219 -63.03578125 33.03898437 -62.5390625 33.57421875 C-60.73856122 35.24219582 -59.38868614 35.58815756 -57 36 C-56.98582031 35.34515625 -56.97164063 34.6903125 -56.95703125 34.015625 C-56.39119548 23.188281 -52.94319593 13.94488489 -45.38671875 6.04296875 C-32.74258491 -4.78007871 -14.97853858 -8.44191607 0 0 Z "
     fill="#FCFCFD"
     transform="translate(154,65)"
     id="path82"
     style="fill:#013a5b;fill-opacity:1" />
  <path
     d="M0 0 C4.95 0 9.9 0 15 0 C18.68104956 10.74910034 22.24595083 21.51305394 25.375 32.4375 C25.62523926 33.30592529 25.87547852 34.17435059 26.13330078 35.0690918 C27.34490818 39.36192037 28.38087975 43.57257032 29 48 C25.37 48 21.74 48 18 48 C17.34 44.7 16.68 41.4 16 38 C7.585 38.495 7.585 38.495 -1 39 C-1.99 41.97 -2.98 44.94 -4 48 C-7.3 48 -10.6 48 -14 48 C-13.22431651 42.07659883 -11.49789504 36.46369172 -9.8125 30.75 C-9.50368896 29.69619141 -9.19487793 28.64238281 -8.87670898 27.55664062 C-6.13754262 18.29488251 -3.14716596 9.13023971 0 0 Z "
     fill="#07375B"
     transform="translate(91,118)"
     id="path84"
     style="fill:#ffffff;fill-opacity:1" />
  <path
     d="M0 0 C1.134375 -0.00644531 2.26875 -0.01289062 3.4375 -0.01953125 C4.613125 -0.00019531 5.78875 0.01914063 7 0.0390625 C8.7634375 0.01005859 8.7634375 0.01005859 10.5625 -0.01953125 C19.02415275 0.02854632 19.02415275 0.02854632 23.29296875 2.80859375 C25.31104379 6.18436687 25.52686364 8.07514417 25.3125 11.9765625 C25.26738281 13.04519531 25.22226563 14.11382812 25.17578125 15.21484375 C25.08876953 16.42720703 25.08876953 16.42720703 25 17.6640625 C21.7 17.6640625 18.4 17.6640625 15 17.6640625 C15 15.0240625 15 12.3840625 15 9.6640625 C9.72 9.6640625 4.44 9.6640625 -1 9.6640625 C-1 19.5640625 -1 29.4640625 -1 39.6640625 C4.28 39.6640625 9.56 39.6640625 15 39.6640625 C15 37.0240625 15 34.3840625 15 31.6640625 C17.97 31.6640625 20.94 31.6640625 24 31.6640625 C24.10832169 33.74624612 24.18573541 35.83005379 24.25 37.9140625 C24.29640625 39.07421875 24.3428125 40.234375 24.390625 41.4296875 C24 44.6640625 24 44.6640625 22.34448242 46.83081055 C17.94243285 50.27296303 12.43635904 49.27629337 7.0625 49.2265625 C5.29229492 49.26233398 5.29229492 49.26233398 3.48632812 49.29882812 C2.34744141 49.29689453 1.20855469 49.29496094 0.03515625 49.29296875 C-1.52126587 49.2940564 -1.52126587 49.2940564 -3.10913086 49.29516602 C-7.16697205 48.40930169 -8.57876307 47.01992693 -11 43.6640625 C-11.70072756 40.77772842 -11.70199642 37.99888939 -11.6640625 35.0390625 C-11.66884613 34.2145459 -11.67362976 33.3900293 -11.67855835 32.54052734 C-11.68195122 30.80238937 -11.67279153 29.06418706 -11.65185547 27.32617188 C-11.62507729 24.67172425 -11.65161996 22.02150425 -11.68359375 19.3671875 C-11.68028954 17.67446987 -11.67388306 15.98175487 -11.6640625 14.2890625 C-11.67418365 13.49935059 -11.68430481 12.70963867 -11.69473267 11.89599609 C-11.60830091 7.8144289 -11.29465666 6.07174724 -8.83349609 2.66650391 C-5.57436353 0.36326375 -3.95267309 0.02161618 0 0 Z "
     fill="#043559"
     transform="translate(136,117.3359375)"
     id="path86"
     style="fill:#ffffff;fill-opacity:1" />
  <path
     d="M 0,0 C 1.5409565,5.1243039 0,0 3.4936574,10.214223 L 4.6690426,13.838738 6,20 H -5 C -1.8644961,5.0231304 -2.044338,4.6556694 0,0 Z"
     fill="#E6E9EB"
     transform="translate(98,127)"
     id="path88"
     style="fill:#013a5b;fill-opacity:1"
     sodipodi:nodetypes="cccccc" />
</svg>
